<svg width="17" height="17" viewBox="0 0 17 17" fill="none" xmlns="http://www.w3.org/2000/svg">
<path d="M3.1685 8.18062C2.83445 8.18062 2.56364 8.45142 2.56364 8.78548C2.56363 9.11953 2.83444 9.39034 3.16849 9.39034L3.1685 8.18062ZM14.3589 8.78556L14.7866 9.21326C15.0228 8.97705 15.0228 8.59408 14.7866 8.35786L14.3589 8.78556ZM10.0726 3.64382C9.83637 3.4076 9.45339 3.4076 9.21718 3.64382C8.98097 3.88003 8.98097 4.26301 9.21718 4.49922L10.0726 3.64382ZM9.21718 13.0719C8.98097 13.3081 8.98097 13.6911 9.21718 13.9273C9.45339 14.1635 9.83637 14.1635 10.0726 13.9273L9.21718 13.0719ZM3.16849 9.39034L14.3589 9.39042L14.3589 8.1807L3.1685 8.18062L3.16849 9.39034ZM9.21718 4.49922L13.9312 9.21326L14.7866 8.35786L10.0726 3.64382L9.21718 4.49922ZM13.9312 8.35786L9.21718 13.0719L10.0726 13.9273L14.7866 9.21326L13.9312 8.35786Z" fill="white"/>
</svg>
